<svg xmlns="http://www.w3.org/2000/svg" viewBox="0 0 200.69 349.58"><defs><style>.cls-1{fill:none;stroke:#fcfcfc;stroke-width:2.62px;}.cls-2{fill:#d1d2d4;}.cls-3{fill:#fff;}.cls-4{fill:#c4c7c8;}.cls-5{fill:#c5c6c8;}</style></defs><g id="Layer_1" data-name="Layer 1"><path class="cls-1" d="M260,217.59" transform="translate(-205.66 -175.45)"/></g><g id="Layer_3" data-name="Layer 3"><path class="cls-2" d="M329.27,303.15l-11.68,8.25q9.29,4.05,18.77,8.38,11.29,5.18,22.11,10.39c1.09.72,2.42,1.63,3.91,2.74a81.73,81.73,0,0,1,26.25,32.78c1.83,4.18,14,33.51-.33,65.35a81.77,81.77,0,0,1-29.78,34.48l-11.63,7.88-5.29,3.66-6.07,4.2-53.3,36.92a30.57,30.57,0,0,1-9.06,4.31c-22.67,6.41-36.05.09-48.07-12-17.07-17.23-18.27-48.53.41-71.15a20.9,20.9,0,0,1,4-3.7q15.66-11.14,31.31-22.32l14.71-10.48,7.89-5.62-33.94-16.26-.08,0-6.53-3.13a113.89,113.89,0,0,1-16.29-15.64,87.22,87.22,0,0,1-16-27,66.92,66.92,0,0,1-3.89-20.33c-1-32.4,19.3-59.67,42.89-75.74l8.09-5.51,9.24-6.3,6.93-4.72,32.68-22.25q-4.89-7-9.79-13.93c-2-3.32-1.64-7.25.6-9.31a6.79,6.79,0,0,1,5.17-1.5l93.41,10a13.52,13.52,0,0,1,7.89,4.87c4.49,5.87,1.75,13.13,1.58,13.55q-14.26,46.25-28.55,92.49a7.17,7.17,0,0,1-3.7,5.39,5.36,5.36,0,0,1-1,.4,7.08,7.08,0,0,1-8-4,7.52,7.52,0,0,1-.44-1.09l-7.2-13.14-10,7.09Z" transform="translate(-205.66 -175.45)"/><g id="Layer_4" data-name="Layer 4"><path class="cls-3" d="M387.32,431.44a81.77,81.77,0,0,1-29.78,34.48l-11.63,7.88-5.29,3.66-23.29-53.58-42.79-20.67,7.89-5.62-33.94-16.26,5,2.42a67.59,67.59,0,0,1-17.34-10.42,86.67,86.67,0,0,1-10.61-10.81,96,96,0,0,1-6.45-8.4c-.89-1.32-1.82-2.77-2.76-4.36a86.69,86.69,0,0,1-6.8-14.27,66.92,66.92,0,0,1-3.89-20.33c-1-32.4,19.3-59.67,42.89-75.74l8.09-5.51,9.24-6.3,1.41,43.64q30.49,16.14,61,32.3l-11.68,8.25q9.28,4.05,18.77,8.38T354.27,329a42.8,42.8,0,0,1,7.09,4.25l0,0c12.27,8.94,18.92,16,26.25,32.78C389.48,370.27,401.69,399.6,387.32,431.44Z" transform="translate(-205.66 -175.45)"/><path class="cls-4" d="M273.66,293.76a24.8,24.8,0,0,1-9.49-7.45c-5.55-7.13-13.53-20.71-11.49-38.06a49,49,0,0,1,4-14.34l16.17-11c-2.9,10.13-4.29,21.71.56,31.27,4.76,9.4,14.2,14.19,21.36,16.76l50.69,20.5L316.61,311.8C322.48,314.36,302.05,306.43,273.66,293.76Z" transform="translate(-205.66 -175.45)"/><path class="cls-4" d="M372.13,302.2a5.36,5.36,0,0,1-1,.4,7.08,7.08,0,0,1-8-4Z" transform="translate(-205.66 -175.45)"/><path class="cls-3" d="M237.14,376.49" transform="translate(-205.66 -175.45)"/></g><path class="cls-5" d="M347.86,460.19a59.85,59.85,0,0,1-2.13,13.73l-11.18,7.74a41.35,41.35,0,0,0-7.09-25.35A42.13,42.13,0,0,0,309,441.74c-8.95-4.18-18.28-9-27.84-14.57q-11.28-6.57-21.34-13.48l22.6-16.1c17.28,7.27,44.38,13.77,51.83,21.81S348.7,438.08,347.86,460.19Z" transform="translate(-205.66 -175.45)"/></g></svg>